<svg xmlns="http://www.w3.org/2000/svg" height="48" viewBox="0 -960 960 960" width="48"><path d="M156.369-116.369V-778q0-26.666 19.532-46.268Q195.432-843.87 222-843.87h267q26.666 0 46.268 19.602T554.87-778v291h65.109q21.796 0 37.115 15.34 15.319 15.34 15.319 36.856v215.5q0 20.954 15.451 35.629Q703.315-169 724.504-169q21.29 0 36.784-14.675 15.495-14.675 15.495-35.629v-302.544q-10.761 5.761-22.557 8.641-11.795 2.881-23.247 2.881-39.134 0-65.915-27.156-26.781-27.156-26.781-66.292 0-30.623 17.391-55.185 17.391-24.563 46.652-33.041l-94.521-94.761 36.674-35.913 146.903 147.362Q806.587-660.065 817-642.62q10.413 17.446 10.413 38.814v383.842q0 43.498-29.512 73.546-29.513 30.049-73.239 30.049-43.627 0-73.253-29.896-29.626-29.896-29.626-73.622v-216.482H554.87v320H156.369ZM222-550.5h267V-778H222v227.5Zm509.302-10.696q17.204 0 29.843-12.666 12.638-12.667 12.638-29.876 0-17.209-12.662-29.648-12.663-12.44-29.865-12.44-17.703 0-30.023 12.465t-12.32 29.673q0 17.209 12.393 29.851 12.393 12.641 29.996 12.641ZM222-182h267v-311H222v311Zm267 0H222h267Z"/></svg>