<svg xmlns="http://www.w3.org/2000/svg" height="48" viewBox="0 -960 960 960" width="48"><path d="M184.413-184.652h42.239l460.304-459.304-41.761-42-460.782 459.543v41.761Zm-65.391 65.63V-253l570.521-570.261q7.715-7.761 18.791-12.359 11.075-4.598 23.09-4.598 10.946 0 21.957 4.49 11.01 4.489 20.728 12.228l50.391 49.674q8.239 9.217 12.478 20.315 4.24 11.098 4.24 22.09 0 11.943-4.381 23.11-4.38 11.167-12.337 19.268L253.239-119.022H119.022Zm653.652-613.174-39.239-39.478 39.239 39.478Zm-106.479 67.001-21-20.761 41.761 42-20.761-21.239Z"/></svg>